<svg width="900" height="680" viewBox="0 0 900 680" fill="none" xmlns="http://www.w3.org/2000/svg">
  <defs>
    <linearGradient id="bg" x1="120" y1="60" x2="760" y2="620" gradientUnits="userSpaceOnUse">
      <stop stop-color="#EAFBF0"/>
      <stop offset="1" stop-color="#EEF4FF"/>
    </linearGradient>
    <linearGradient id="accent" x1="260" y1="160" x2="650" y2="560" gradientUnits="userSpaceOnUse">
      <stop stop-color="#22C55E"/>
      <stop offset="1" stop-color="#2563EB"/>
    </linearGradient>
  </defs>

  <rect x="30" y="30" width="840" height="620" rx="32" fill="url(#bg)"/>
  <circle cx="705" cy="135" r="52" fill="#DCFCE7"/>
  <circle cx="760" cy="510" r="42" fill="#DBEAFE"/>

  <rect x="178" y="140" width="430" height="290" rx="22" fill="#0F172A" opacity="0.95"/>
  <rect x="198" y="165" width="390" height="220" rx="16" fill="#F8FAFC"/>
  <rect x="198" y="385" width="390" height="28" rx="12" fill="#1E293B" opacity="0.18"/>

  <rect x="225" y="195" width="145" height="16" rx="8" fill="#BBF7D0"/>
  <rect x="225" y="225" width="215" height="12" rx="6" fill="#CBD5E1"/>
  <rect x="225" y="250" width="185" height="12" rx="6" fill="#E2E8F0"/>

  <rect x="225" y="290" width="155" height="60" rx="14" fill="#DCFCE7"/>
  <rect x="395" y="290" width="165" height="60" rx="14" fill="#DBEAFE"/>
  <rect x="245" y="308" width="88" height="12" rx="6" fill="#16A34A" opacity="0.75"/>
  <rect x="245" y="328" width="60" height="10" rx="5" fill="#86EFAC"/>
  <rect x="415" y="308" width="100" height="12" rx="6" fill="#2563EB" opacity="0.7"/>
  <rect x="415" y="328" width="70" height="10" rx="5" fill="#93C5FD"/>

  <rect x="645" y="205" width="150" height="110" rx="18" fill="#FFFFFF"/>
  <rect x="670" y="228" width="95" height="14" rx="7" fill="#22C55E" opacity="0.85"/>
  <rect x="670" y="255" width="70" height="10" rx="5" fill="#CBD5E1"/>
  <rect x="670" y="276" width="80" height="10" rx="5" fill="#E2E8F0"/>
  <circle cx="705" cy="178" r="18" fill="#16A34A"/>
  <path d="M698 178L703 183L713 172" stroke="white" stroke-width="4" stroke-linecap="round" stroke-linejoin="round"/>

  <rect x="610" y="370" width="175" height="110" rx="18" fill="#FFFFFF"/>
  <rect x="635" y="395" width="110" height="12" rx="6" fill="#2563EB" opacity="0.7"/>
  <rect x="635" y="419" width="86" height="10" rx="5" fill="#CBD5E1"/>
  <rect x="635" y="438" width="95" height="10" rx="5" fill="#E2E8F0"/>
  <circle cx="724" cy="457" r="20" fill="#DCFCE7"/>
  <path d="M724 446V458L732 463" stroke="#16A34A" stroke-width="4" stroke-linecap="round"/>

  <circle cx="165" cy="498" r="68" fill="#22C55E" opacity="0.15"/>
  <rect x="120" y="448" width="108" height="112" rx="28" fill="url(#accent)"/>
  <circle cx="174" cy="480" r="20" fill="#F8FAFC"/>
  <path d="M143 536C150 512 171 505 186 505C201 505 221 512 228 536" stroke="#F8FAFC" stroke-width="12" stroke-linecap="round"/>
</svg>